<?xml version="1.0" encoding="UTF-8"?>
<svg xmlns="http://www.w3.org/2000/svg" width="860" height="360" viewBox="0 0 860 360" role="img" aria-label="Recall@10 vs bit-width">
  <style>
    .title { font: 700 20px -apple-system, BlinkMacSystemFont, "Segoe UI", sans-serif; fill: #0f172a; }
    .subtitle { font: 400 12px -apple-system, BlinkMacSystemFont, "Segoe UI", sans-serif; fill: #475569; }
    .label { font: 600 12px -apple-system, BlinkMacSystemFont, "Segoe UI", sans-serif; fill: #0f172a; }
    .secondary { font: 400 11px -apple-system, BlinkMacSystemFont, "Segoe UI", sans-serif; fill: #475569; }
    .tick { font: 400 11px -apple-system, BlinkMacSystemFont, "Segoe UI", sans-serif; fill: #64748b; }
    .value { font: 700 11px -apple-system, BlinkMacSystemFont, "Segoe UI", sans-serif; fill: #0f172a; }
    .axis { font: 600 12px -apple-system, BlinkMacSystemFont, "Segoe UI", sans-serif; fill: #334155; }
  </style>
  <rect width="100%" height="100%" fill="#ffffff" />
  <text x="70" y="28" class="title">Recall@10 vs bit-width</text>
  <text x="70" y="46" class="subtitle">Synthetic clustered embeddings, d=384, N=5000</text>
  <text x="18" y="168" transform="rotate(-90, 18, 168)" class="axis">Recall@10 (%)</text>
  
      <line x1="70" y1="278" x2="836" y2="278" stroke="#e5e7eb" stroke-width="1" />
      <text x="60" y="282" text-anchor="end" class="tick">0%</text>
    

      <line x1="70" y1="234" x2="836" y2="234" stroke="#e5e7eb" stroke-width="1" />
      <text x="60" y="238" text-anchor="end" class="tick">20%</text>
    

      <line x1="70" y1="190" x2="836" y2="190" stroke="#e5e7eb" stroke-width="1" />
      <text x="60" y="194" text-anchor="end" class="tick">40%</text>
    

      <line x1="70" y1="146" x2="836" y2="146" stroke="#e5e7eb" stroke-width="1" />
      <text x="60" y="150" text-anchor="end" class="tick">60%</text>
    

      <line x1="70" y1="102" x2="836" y2="102" stroke="#e5e7eb" stroke-width="1" />
      <text x="60" y="106" text-anchor="end" class="tick">80%</text>
    

      <line x1="70" y1="58" x2="836" y2="58" stroke="#e5e7eb" stroke-width="1" />
      <text x="60" y="62" text-anchor="end" class="tick">100%</text>
    
  <line x1="70" y1="278" x2="836" y2="278" stroke="#94a3b8" stroke-width="1.5" />
  
      <rect x="89.875" y="204.3" width="56" height="73.7" rx="8" fill="#0f766e" />
      <text x="117.875" y="196.3" text-anchor="middle" class="value">33.5%</text>
      <text x="117.875" y="300" text-anchor="middle" class="label">1b</text>
      <text x="117.875" y="316" text-anchor="middle" class="secondary">52 B/vec</text>
    

      <rect x="185.625" y="157" width="56" height="121.00000000000001" rx="8" fill="#0f766e" />
      <text x="213.625" y="149" text-anchor="middle" class="value">55.0%</text>
      <text x="213.625" y="300" text-anchor="middle" class="label">2b</text>
      <text x="213.625" y="316" text-anchor="middle" class="secondary">100 B/vec</text>
    

      <rect x="281.375" y="131.7" width="56" height="146.3" rx="8" fill="#0f766e" />
      <text x="309.375" y="123.69999999999999" text-anchor="middle" class="value">66.5%</text>
      <text x="309.375" y="300" text-anchor="middle" class="label">3b</text>
      <text x="309.375" y="316" text-anchor="middle" class="secondary">148 B/vec</text>
    

      <rect x="377.125" y="102" width="56" height="176" rx="8" fill="#0f766e" />
      <text x="405.125" y="94" text-anchor="middle" class="value">80.0%</text>
      <text x="405.125" y="300" text-anchor="middle" class="label">4b</text>
      <text x="405.125" y="316" text-anchor="middle" class="secondary">196 B/vec</text>
    

      <rect x="472.875" y="80" width="56" height="198" rx="8" fill="#0f766e" />
      <text x="500.875" y="72" text-anchor="middle" class="value">90.0%</text>
      <text x="500.875" y="300" text-anchor="middle" class="label">5b</text>
      <text x="500.875" y="316" text-anchor="middle" class="secondary">244 B/vec</text>
    

      <rect x="568.625" y="70.10000000000002" width="56" height="207.89999999999998" rx="8" fill="#0f766e" />
      <text x="596.625" y="72" text-anchor="middle" class="value">94.5%</text>
      <text x="596.625" y="300" text-anchor="middle" class="label">6b</text>
      <text x="596.625" y="316" text-anchor="middle" class="secondary">292 B/vec</text>
    

      <rect x="664.375" y="64.6" width="56" height="213.4" rx="8" fill="#0f766e" />
      <text x="692.375" y="72" text-anchor="middle" class="value">97.0%</text>
      <text x="692.375" y="300" text-anchor="middle" class="label">7b</text>
      <text x="692.375" y="316" text-anchor="middle" class="secondary">340 B/vec</text>
    

      <rect x="760.125" y="65.70000000000002" width="56" height="212.29999999999998" rx="8" fill="#0f766e" />
      <text x="788.125" y="72" text-anchor="middle" class="value">96.5%</text>
      <text x="788.125" y="300" text-anchor="middle" class="label">8b</text>
      <text x="788.125" y="316" text-anchor="middle" class="secondary">388 B/vec</text>
    
</svg>